HIERARCHY
ROOT Hips
{
	OFFSET 0.000000 0.000000 0.000000 
	CHANNELS 6 Xposition Yposition Zposition Yrotation Zrotation Xrotation 
	JOINT Lumbar
	{
		OFFSET 0.000000 0.000000 0.000000 
		CHANNELS 3 Zrotation Xrotation Yrotation
		JOINT Neck
		{
			OFFSET 0.000000 0.445665 0.000000 
			CHANNELS 3 Zrotation Xrotation Yrotation
			End Site
			{
				OFFSET 0.000000 0.227535 0.000000 
			}
		}
		JOINT RightShoulder
		{
			OFFSET 0.019635 0.377685 0.194865 
			CHANNELS 3 Zrotation Xrotation Yrotation
			JOINT RightElbow
			{
				OFFSET 0.000000 -0.243375 0.000000 
				CHANNELS 2 Zrotation Yrotation
				JOINT RightWrist
				{
					OFFSET 0.000000 -0.264825 0.000000 
					CHANNELS 2 Zrotation Xrotation
					End Site
					{
						OFFSET 0.006600 -0.176220 0.000990 
					}
				}
			}
		}
		JOINT LeftShoulder
		{
			OFFSET 0.019635 0.377685 -0.194865 
			CHANNELS 3 Zrotation Xrotation Yrotation
			JOINT LeftElbow
			{
				OFFSET 0.000000 -0.243375 0.000000 
				CHANNELS 2 Zrotation Yrotation
				JOINT LeftWrist
				{
					OFFSET 0.000000 -0.264825 0.000000 
					CHANNELS 2 Zrotation Xrotation
					End Site
					{
						OFFSET 0.006600 -0.176220 -0.000990 
					}
				}
			}
		}
	}
	JOINT RightHip
	{
		OFFSET 0.052140 -0.069960 0.075570 
		CHANNELS 3 Zrotation Xrotation Yrotation
		JOINT RightKnee
		{
			OFFSET 0.000000 -0.402270 0.000000 
			CHANNELS 1 Zrotation
			JOINT RightAnkle
			{
				OFFSET 0.000000 -0.404085 0.000000 
				CHANNELS 3 Zrotation Xrotation Yrotation
				End Site
				{
					OFFSET 0.204105 -0.089430 0.008415 
				}
			}
		}
	}
	JOINT LeftHip
	{
		OFFSET 0.052140 -0.069960 -0.075570 
		CHANNELS 3 Zrotation Xrotation Yrotation
		JOINT LeftKnee
		{
			OFFSET 0.000000 -0.402270 0.000000 
			CHANNELS 1 Zrotation
			JOINT LeftAnkle
			{
				OFFSET 0.000000 -0.404085 0.000000 
				CHANNELS 3 Zrotation Xrotation Yrotation
				End Site
				{
					OFFSET 0.204105 -0.089430 -0.008415 
				}
			}
		}
	}
}
MOTION
Frames: 27
Frame Time: 0.02
-0.13476 -1.00672 -0.63013 -65.60093 10.12555 8.7846 -17.35604 4.657 -1.74714 -18.14607 5.035 -0.83079 37.4386 8.29064 23.59332 35.1994 103.8173 -19.43523 -8.4843 33.91949 -2.64785 -19.25379 34.93789 -104.22563 -15.79249 9.44645 130.40519 -34.09099 -32.1076 -120.88283 9.4654 3.24744 6.90413 130.40519 34.09099 26.05929 -123.4356 14.305 -34.94303 -16.94019
-0.13473 -1.00673 -0.63014 -65.64011 10.27937 8.79289 -17.26951 4.58454 -1.53287 -18.50394 5.20063 -0.83079 36.15636 7.76123 22.38915 36.35998 102.81135 -19.16116 -8.55076 32.71795 -2.73258 -17.89455 35.69614 -103.22232 -15.73178 9.07601 130.40519 -34.09099 -31.81457 -120.95286 8.58381 4.98997 6.8653 130.40519 34.09099 25.82103 -123.4545 13.674 -35.15796 -17.0107
-0.13473 -1.00672 -0.63016 -65.68325 10.43207 8.80841 -17.11451 4.49966 -1.34259 -18.91165 5.31254 -0.83079 34.85181 7.25927 21.33159 37.27906 100.3247 -18.5476 -8.68706 31.57501 -2.85709 -16.71029 36.13393 -100.57473 -15.19044 8.5258 130.40519 -34.09099 -31.49931 -121.04299 7.67082 7.20842 6.69629 130.40519 34.09099 25.56801 -123.47849 13.09823 -35.29231 -17.04206
-0.13473 -1.00673 -0.63019 -65.72388 10.58846 8.82008 -16.99013 4.42229 -1.15031 -19.27781 5.43836 -0.83079 33.57693 6.75149 20.24974 38.26245 98.60777 -18.11437 -8.7701 30.42331 -2.9582 -15.48752 36.67847 -98.76422 -14.87631 8.04407 130.4052 -34.09099 -31.20172 -121.11828 6.7663 9.10734 6.58931 130.40519 34.09099 25.32067 -123.50056 12.47939 -35.46277 -17.09174
-0.13468 -1.00668 -0.63016 -65.76727 10.73276 8.83403 -16.86995 4.33678 -0.91842 -19.72657 5.60975 -0.83079 32.21337 6.20943 18.99042 39.44952 96.52326 -17.58148 -8.92876 29.18581 -3.08504 -14.07321 37.39299 -96.63848 -14.54128 7.61154 130.40519 -34.09099 -30.87078 -121.2179 5.88255 11.43592 6.47311 130.40519 34.09099 25.0746 -123.52157 11.92641 -35.64581 -17.14335
-0.13474 -1.00676 -0.63025 -65.80654 10.90215 8.84501 -16.72407 4.26535 -0.77542 -20.01384 5.67319 -0.83079 31.03198 5.74838 18.13857 40.14968 94.83628 -17.17576 -8.9564 28.1463 -3.16716 -13.10754 37.6755 -94.753 -14.13421 7.04268 130.40519 -34.09099 -30.60345 -121.27244 4.94736 12.99007 6.34483 130.40519 34.09099 24.82325 -123.54575 11.25339 -35.7771 -17.17931
-0.13509 -1.00715 -0.63063 -65.82631 11.1335 8.84584 -16.52264 4.23619 -0.87315 -19.84675 5.44892 -0.83079 30.3552 5.49621 18.33282 39.57245 94.61959 -17.15237 -8.55304 27.6229 -3.10741 -13.32548 36.83755 -93.94605 -13.58476 6.06239 130.40521 -34.09101 -30.53045 -121.18648 3.90348 12.22579 6.20492 130.40519 34.09099 24.56404 -123.57804 10.23067 -35.81475 -17.19046
-0.13553 -1.00767 -0.63112 -65.84317 11.39178 8.84361 -16.29786 4.22168 -1.05966 -19.51524 5.11802 -0.83079 29.86445 5.32717 18.93903 38.50994 94.84798 -17.27601 -8.0252 27.30138 -3.00218 -13.99384 35.57564 -93.42489 -12.98662 4.96497 130.40517 -34.09095 -30.51978 -121.05646 2.80438 10.67758 6.05819 130.40519 34.09099 24.29941 -123.61332 9.08576 -35.79654 -17.18505
-0.13593 -1.00813 -0.63157 -65.86586 11.64174 8.8428 -16.08402 4.20016 -1.20499 -19.25503 4.83774 -0.83079 29.2914 5.12581 19.38463 37.66344 94.85803 -17.36449 -7.59188 26.89894 -2.92305 -14.46632 34.51145 -92.7574 -12.44908 3.97388 130.40522 -34.09103 -30.47272 -120.95356 1.71542 9.53006 5.92129 130.40519 34.09099 24.03638 -123.64657 8.00358 -35.7834 -17.18103
-0.13635 -1.00857 -0.632 -65.86923 11.873 8.84166 -15.8655 4.17935 -1.35437 -19.0074 4.54711 -0.83079 28.70643 4.90115 19.72455 36.82999 94.87844 -17.3086 -7.00653 26.45127 -2.82301 -14.90652 33.41683 -92.10909 -11.73718 2.7556 130.40521 -34.09101 -30.46035 -120.82096 0.69101 8.21179 5.75352 130.40519 34.09099 23.77858 -123.68222 6.90005 -35.85318 -17.20178
-0.13675 -1.0091 -0.6325 -65.91263 12.15233 8.84094 -15.65325 4.1611 -1.51644 -18.69846 4.25262 -0.83079 28.19273 4.74582 20.3787 35.85453 95.01033 -17.59162 -6.69997 26.14677 -2.7545 -15.51977 32.28658 -91.50242 -11.37746 1.98096 130.40504 -34.09075 -30.38899 -120.74008 -0.48378 7.05654 5.64759 130.40519 34.09099 23.50608 -123.71431 5.80212 -35.73822 -17.16729
-0.13705 -1.0098 -0.63318 -66.06323 12.53535 8.83749 -15.45466 4.14309 -1.6889 -18.22229 3.98058 -0.83079 27.8152 4.7502 21.81384 34.62918 95.27154 -18.7823 -7.25866 26.17352 -2.79015 -16.48949 31.18392 -91.01524 -12.05198 2.49551 130.40556 -34.09154 -30.15499 -120.807 -2.02783 6.5416 5.73494 130.4052 34.091 23.21742 -123.72897 4.82768 -35.12359 -16.98562
-0.13731 -1.0106 -0.63394 -66.25519 12.97051 8.83556 -15.26568 4.1278 -1.87153 -17.69807 3.7074 -0.83079 27.50659 4.82372 23.54709 33.27468 95.64638 -20.30729 -8.09045 26.3398 -2.85811 -17.61739 30.0575 -90.558 -13.07577 3.45434 130.40475 -34.09033 -29.85652 -120.92793 -3.72398 6.21468 5.88072 130.40519 34.09097 22.90966 -123.7412 3.84806 -34.32522 -16.74849
-0.13758 -1.01138 -0.63467 -66.43054 13.39588 8.83574 -15.07827 4.11353 -2.05132 -17.21923 3.43024 -0.83079 27.17564 4.87262 25.13453 31.96476 96.02671 -21.67816 -8.75338 26.45164 -2.90673 -18.68152 28.92889 -90.04166 -13.90916 4.18804 130.40506 -34.09077 -29.57777 -121.02849 -5.37573 5.8017 5.98776 130.4052 34.09101 22.5959 -123.75902 2.81958 -33.61436 -16.5366
-0.1379 -1.01205 -0.63537 -66.5956 13.76144 8.82332 -14.86323 4.0904 -2.22667 -16.63076 3.16782 -0.83079 26.81057 4.8947 26.78223 30.69638 96.19497 -23.07094 -9.59805 26.53293 -2.97207 -19.73415 27.83991 -89.71112 -14.87376 5.0177 130.40719 -34.09401 -29.34238 -121.11207 -6.93829 5.3685 6.14919 130.4052 34.091 22.34502 -123.758 2.00386 -32.88753 -16.32556
-0.13811 -1.01297 -0.63616 -66.79316 14.26619 8.83836 -14.71046 4.08595 -2.41258 -16.26702 2.87646 -0.83079 26.53388 4.98925 28.3671 29.31839 96.80807 -24.4859 -10.13427 26.70807 -3.01255 -20.83369 26.66857 -89.01625 -15.64936 5.75191 130.40021 -34.0835 -28.99958 -121.24172 -8.70542 5.0269 6.20724 130.40515 34.09089 21.95736 -123.79565 0.74435 -32.14734 -16.0978
-0.13803 -1.01453 -0.63715 -67.06 15.11972 8.92199 -14.70912 4.13413 -2.62381 -16.48741 2.5014 -0.83079 26.45419 5.25536 29.72587 27.66236 98.77934 -25.96384 -9.72098 27.10961 -2.96231 -22.09321 25.27646 -87.14094 -15.81106 6.13776 130.41156 -34.10046 -28.38455 -121.50902 -11.14397 4.94261 6.00242 130.40528 34.09121 21.20857 -123.94022 -1.72509 -31.44541 -15.85325
-0.13785 -1.01634 -0.63825 -67.35994 16.11518 9.03457 -14.77336 4.20052 -2.84478 -16.945 2.09911 -0.83079 26.46529 5.59343 31.00456 25.90511 101.16352 -27.43672 -8.99406 27.59955 -2.88901 -23.37708 23.80482 -84.92471 -15.77074 6.40878 130.40602 -34.09248 -27.66222 -121.81687 -13.75735 4.93974 5.686 130.40509 34.09074 20.32103 -124.12386 -4.63911 -30.72969 -15.59002
-0.13771 -1.01807 -0.63932 -67.65169 17.06111 9.1383 -14.81998 4.25747 -3.06216 -17.327 1.71179 -0.83079 26.45431 5.90622 32.30536 24.20018 103.2523 -28.85585 -8.43187 28.04699 -2.83548 -24.60496 22.37058 -82.97688 -15.82917 6.71676 130.37954 -34.05207 -26.98244 -122.09054 -16.19444 4.86886 5.39492 130.40514 34.09087 19.48873 -124.2899 -7.36336 -30.00244 -15.32622
-0.13757 -1.01969 -0.64029 -67.91648 17.94762 9.22357 -14.81663 4.31982 -3.27783 -17.57311 1.31114 -0.83079 26.3669 6.19157 33.67995 22.46023 105.79739 -30.5215 -7.78612 28.50901 -2.7429 -26.03734 20.9278 -80.56424 -15.87578 7.10267 130.47261 -34.19237 -26.32467 -122.43154 -19.04023 4.92981 5.20775 130.40571 34.09223 18.68705 -124.4552 -10.05221 -29.34931 -15.10244
-0.13741 -1.02159 -0.6415 -68.2441 18.98845 9.35456 -14.93136 4.37471 -3.49749 -18.15687 0.93467 -0.83079 26.45679 6.54843 34.87435 20.77533 107.49212 -31.67044 -7.23551 28.9601 -2.72692 -27.03612 19.48693 -79.02205 -15.8878 7.29543 130.3142 -33.9554 -25.59893 -122.64253 -21.08118 4.73961 4.78349 130.40396 34.08802 17.79103 -124.63135 -12.90002 -28.5341 -14.78691
-0.13721 -1.02424 -0.64337 -68.74173 20.44032 9.60095 -15.36769 4.409 -3.74075 -19.63474 0.60709 -0.83079 27.03406 7.09979 35.61699 19.23265 106.70621 -31.37046 -7.0304 29.35343 -2.91749 -26.93285 18.05188 -80.10941 -15.9126 6.9615 129.45436 -32.64063 -24.69035 -122.47495 -20.79519 3.78068 3.6744 130.40668 34.09458 16.65129 -124.82919 -16.25512 -27.34197 -14.26761
-0.13699 -1.02716 -0.64548 -69.29995 22.0377 9.8928 -15.91779 4.43442 -3.985 -21.43982 0.30923 -0.83079 27.78172 7.71719 36.17344 17.75726 105.05605 -30.55263 -6.92919 29.73139 -3.18719 -26.3769 16.62711 -82.05965 -15.89917 6.43874 128.34545 -30.95582 -23.72154 -122.1779 -19.70327 2.57542 2.34075 130.40562 34.09201 15.42553 -125.03718 -19.72434 -25.9812 -13.65179
-0.1368 -1.02993 -0.64747 -69.82774 23.55652 10.16663 -16.40888 4.46082 -4.21874 -23.08357 0.01407 -0.83079 28.43891 8.29482 36.79789 16.27285 103.82094 -29.98631 -6.7753 30.1217 -3.42816 -25.95557 15.20779 -83.51881 -15.85984 6.01446 127.35619 -29.46693 -22.79443 -121.94461 -19.02085 1.51863 1.14762 130.39855 34.07497 14.24947 -125.23868 -23.02178 -24.64726 -13.04671
-0.13654 -1.03282 -0.64952 -70.37068 25.13673 10.43141 -16.93546 4.50027 -4.4947 -24.79281 -0.34986 -0.83079 29.1577 8.91761 37.49475 14.68868 102.5041 -29.35447 -6.63439 30.49949 -3.64016 -25.81786 13.73512 -85.37606 -15.98664 5.5337 126.33357 -27.85629 -21.80233 -121.68691 -18.1648 0.31155 -0.21076 130.42188 34.13124 13.0204 -125.44621 -26.83029 -23.49982 -12.56722
-0.13643 -1.03551 -0.6515 -70.89383 26.61687 10.72411 -17.41133 4.51078 -4.68357 -26.43536 -0.56389 -0.83079 29.78329 9.45931 37.9915 13.33605 101.14953 -28.73278 -6.4943 30.88982 -3.92865 -25.00358 12.38689 -86.62323 -15.77315 5.12629 125.32844 -26.41633 -20.93357 -121.45516 -17.47332 -0.64325 -1.2781 130.38375 34.03925 11.88735 -125.64717 -29.60908 -21.95317 -11.8205
-0.13671 -1.03766 -0.65322 -71.36585 27.82628 11.09421 -17.74492 4.43833 -4.62491 -27.85505 -0.36408 -0.83079 30.14409 9.77499 38.03427 12.55387 99.87609 -28.29409 -6.339 31.39284 -4.43401 -22.24079 11.29657 -85.89129 -14.52276 4.97408 124.37289 -25.49851 -20.41357 -121.27187 -17.46092 -0.83133 -1.47502 130.15293 33.48239 11.00475 -125.79248 -29.39278 -19.09322 -10.21157
